Coordinates
version=1
nRows=6
nColumns=107
inDegrees=yes

Units are S.I. units (second, meters, Newtons, ...)
If the header above contains a line with 'inDegrees', this indicates whether rotational values are in degrees (yes) or radians (no).

endheader
time	sternoclavicular_r2	sternoclavicular_r3	unrotscap_r3	unrotscap_r2	acromioclavicular_r2	acromioclavicular_r3	acromioclavicular_r1	unrothum_r1	unrothum_r3	unrothum_r2	elv_angle	shoulder_elv	shoulder1_r2	shoulder_rot	elbow_flexion	pro_sup	deviation	flexion	proximal_distal_r1	proximal_distal_r3	cmc_flexion	cmc_abduction	mp_flexion	ip_flexion	mcp2_flexion	mcp2_abduction	pm2_flexion	md2_flexion	mcp3_flexion	mcp3_abduction	pm3_flexion	md3_flexion	mcp4_flexion	mcp4_abduction	pm4_flexion	md4_flexion	mcp5_flexion	mcp5_abduction	pm5_flexion	md5_flexion	bicpt_tx	bicpt_ty	bicpt_tz	bicpt2_tx	bicpt2_ty	bicpt2_tz	ptpt_tx	ptpt_ty	ptpt_tz	FCUpt_tx	FCUpt_ty	FCUpt_tz	EDCpt_tx	EDCpt_ty	EDCpt_tz	APLpt_tx	APLpt_ty	APLpt_tz	FPLpt_tx	FPLpt_ty	FPLpt_tz	FPLpt2_tx	FPLpt2_ty	FPLpt2_tz	PEC1pt2_tx	PEC1pt2_ty	PEC1pt2_tz	PEC1pt3_tx	PEC1pt3_ty	PEC1pt3_tz	PEC2pt2_tx	PEC2pt2_ty	PEC2pt2_tz	PEC2pt3_tx	PEC2pt3_ty	PEC2pt3_tz	PEC3pt2_tx	PEC3pt2_ty	PEC3pt2_tz	PEC3pt3_tx	PEC3pt3_ty	PEC3pt3_tz	DELT2pt2a_tx	DELT2pt2a_ty	DELT2pt2a_tz	DELT2pt2_tx	DELT2pt2_ty	DELT2pt2_tz	LAT1pt2_tx	LAT1pt2_ty	LAT1pt2_tz	LAT1pt3_tx	LAT1pt3_ty	LAT1pt3_tz	LAT2pt2_tx	LAT2pt2_ty	LAT2pt2_tz	LAT2pt3_tx	LAT2pt3_ty	LAT2pt3_tz	LAT3pt2_tx	LAT3pt2_ty	LAT3pt2_tz	LAT3pt3_tx	LAT3pt3_ty	LAT3pt3_tz
      0.76666667	     -0.33585303	      0.14225149	     -0.14225149	      0.33585303	     -0.06800341	      0.54957962	      0.24703226	     -0.24703226	     -0.54957962	      0.06800341	     96.68973214	     79.51619069	     -1.68755418	     -2.42122813	     26.11280383	    -26.44476809	      0.30678462	      0.35704036	      0.33931473	      0.17852018	      2.58390095	     -7.76153138	    -13.95840534	     -6.76655938	      9.18860434	     10.93395492	     23.95616818	     -2.92907412	     29.04770237	      5.59402414	     48.43992154	     23.27652725	     32.47793170	     -4.06157995	     41.68056863	     25.10465465	     12.99878241	    -12.63120836	     21.34164628	      5.10936255	      0.00076373	     -0.03059293	     -0.00478208	      0.01140018	     -0.01729367	     -0.01146805	      0.00950397	     -0.06363653	      0.00208027	      0.00177197	     -0.18425047	      0.00174765	      0.00317336	     -0.00064135	     -0.00057296	     -0.00047206	     -0.00018882	     -0.00094411	     -0.00060423	     -0.00181270	     -0.00101964	      0.00004053	     -0.00006089	     -0.00007307	      0.00260637	      0.00914437	      0.00636130	     -0.00852591	      0.02058588	     -0.01952566	      0.00260637	      0.00914437	      0.00636130	      0.00057428	      0.01908390	     -0.01002788	      0.00407267	      0.00508507	      0.01626435	      0.00000000	      0.00846133	      0.00000000	     -0.00746569	     -0.03450122	     -0.00698032	      0.00156578	     -0.00000077	      0.00003393	     -0.00092769	      0.01554985	     -0.00636130	      0.00256219	      0.02244125	     -0.01855379	     -0.00622877	      0.01347359	     -0.00569867	     -0.01298766	      0.02844915	     -0.03185068	     -0.02438499	      0.01506391	     -0.00764240	     -0.01616831	      0.03286672	     -0.03980230
      0.80000000	     -0.34667796	      0.14683642	     -0.14683642	      0.34667796	     -0.07019524	      0.56729320	      0.25499439	     -0.25499439	     -0.56729320	      0.07019524	     95.28997223	     82.07908905	     -1.66312376	      9.00800754	     26.68601286	    -42.53954596	      0.34227391	      0.43798073	      0.36862462	      0.21899036	      6.73624591	     -7.51716847	    -14.60724622	     -7.36793355	      9.55081797	     10.11449958	     27.32237828	     -1.58527773	     28.28258067	      5.82177901	     42.76179017	     23.37312696	     33.60566350	     -3.94208944	     34.55475702	     24.38926441	     20.13050453	    -13.05189235	     17.28207575	      5.19989034	      0.00078269	     -0.03065862	     -0.00479266	      0.00862728	     -0.01744939	     -0.01150519	      0.01069319	     -0.06286756	      0.00337679	      0.00052160	     -0.18424485	      0.00276480	      0.00510473	     -0.00092603	     -0.00110719	     -0.00060876	     -0.00024350	     -0.00121752	     -0.00077921	     -0.00233764	     -0.00131492	      0.00003680	     -0.00014320	     -0.00017184	      0.00269037	      0.00943910	      0.00656633	     -0.00880071	      0.02124938	     -0.02015499	      0.00269037	      0.00943910	      0.00656633	      0.00059279	      0.01969900	     -0.01035109	      0.00416533	      0.00524897	      0.01647393	      0.00000000	      0.00902023	      0.00000000	     -0.00770632	     -0.03561323	     -0.00744371	     -0.00859041	     -0.00033632	     -0.00135508	     -0.00095759	      0.01605104	     -0.00656633	      0.00264477	      0.02316456	     -0.01915180	     -0.00642953	      0.01390786	     -0.00588234	     -0.01340626	      0.02936610	     -0.03287726	     -0.02517094	      0.01554944	     -0.00788872	     -0.01668943	      0.03392605	     -0.04108518
      0.83333333	     -0.35205765	      0.14911501	     -0.14911501	      0.35205765	     -0.07128451	      0.57609636	      0.25895135	     -0.25895135	     -0.57609636	      0.07128451	     94.72248944	     83.35277891	     -1.65321932	     14.43816422	     27.03411969	    -50.92108662	      0.37779015	      0.59143777	      0.39589273	      0.29571889	     10.31067041	     -7.49401295	    -14.62405051	     -7.82627086	      8.63024932	      9.13941666	     30.34677229	     -0.30114844	     26.34418170	      5.88071350	     39.49182583	     22.62107257	     33.32860389	     -3.89748338	     31.28988712	     22.91196059	     24.90342938	    -13.47641425	     14.89779996	      5.16729760	      0.00079420	     -0.03069852	     -0.00479909	      0.00694855	     -0.01754395	     -0.01138068	      0.01131249	     -0.06246711	      0.00405197	     -0.00009787	     -0.18421279	      0.00337175	      0.00611052	     -0.00104262	     -0.00144101	     -0.00089806	     -0.00035922	     -0.00179612	     -0.00114952	     -0.00344855	     -0.00193981	      0.00003229	     -0.00019871	     -0.00023845	      0.00273212	      0.00958558	      0.00666823	     -0.00893728	      0.02157913	     -0.02046776	      0.00273212	      0.00958558	      0.00666823	      0.00060199	      0.02000468	     -0.01051172	      0.00421048	      0.00533042	      0.01657261	      0.00000000	      0.00930480	      0.00000000	     -0.00782591	     -0.03616588	     -0.00767954	     -0.01402798	     -0.00084440	     -0.00318799	     -0.00097245	      0.01630011	     -0.00666823	      0.00268581	      0.02352403	     -0.01944900	     -0.00652931	      0.01412368	     -0.00597362	     -0.01361430	      0.02982180	     -0.03338745	     -0.02556154	      0.01579073	     -0.00801113	     -0.01694841	      0.03445251	     -0.04172273
      0.86666667	     -0.35407677	      0.14997021	     -0.14997021	      0.35407677	     -0.07169334	      0.57940039	      0.26043649	     -0.26043649	     -0.57940039	      0.07169334	     94.35530479	     83.83082367	     -1.64681074	     16.96333448	     27.51762063	    -55.29205135	      0.38463094	      0.66920421	      0.40090844	      0.33460211	     13.36103472	     -8.11928384	    -13.82909123	     -7.77674646	      8.54708999	      7.81711102	     31.72607000	      0.25994357	     24.83080966	      5.50466800	     37.80365065	     22.30641444	     33.27371116	     -4.48475154	     30.08569651	     22.48297980	     29.13379306	    -13.89364871	     14.45685456	      4.97651944	      0.00081020	     -0.03075394	     -0.00480802	      0.00600948	     -0.01767530	     -0.01127676	      0.01163546	     -0.06225827	      0.00440407	     -0.00041235	     -0.18418817	      0.00370921	      0.00663503	     -0.00109483	     -0.00163016	     -0.00105970	     -0.00042388	     -0.00211939	     -0.00135641	     -0.00406924	     -0.00228895	      0.00002720	     -0.00023485	     -0.00028182	      0.00274779	      0.00964055	      0.00670647	     -0.00898853	      0.02170289	     -0.02058514	      0.00274779	      0.00964055	      0.00670647	      0.00060545	      0.02011941	     -0.01057201	      0.00422728	      0.00536099	      0.01660873	      0.00000000	      0.00941277	      0.00000000	     -0.00787079	     -0.03637329	     -0.00776900	     -0.01669088	     -0.00117032	     -0.00432121	     -0.00097803	      0.01639360	     -0.00670647	      0.00270122	      0.02365894	     -0.01956054	     -0.00656675	      0.01420468	     -0.00600788	     -0.01369238	      0.02999283	     -0.03357893	     -0.02570814	      0.01588130	     -0.00805708	     -0.01704562	      0.03465010	     -0.04196202
      0.90000000	     -0.35433549	      0.15007979	     -0.15007979	      0.35433549	     -0.07174573	      0.57982374	      0.26062678	     -0.26062678	     -0.57982374	      0.07174573	     94.26128856	     83.89207600	     -1.64516984	     17.58695776	     27.36528242	    -56.06584841	      0.40173467	      0.82129177	      0.41311105	      0.41064589	     16.39033058	     -9.17516340	    -13.70342007	     -8.09965897	      6.50471402	      7.28192378	     35.42094978	      2.06193799	     23.55705210	      5.13254540	     34.33946414	     22.28899490	     34.03496550	     -4.41253929	     26.10806403	     21.61710631	     34.02530740	    -13.86559696	      8.90177033	      5.20180522	      0.00080516	     -0.03073648	     -0.00480520	      0.00583855	     -0.01763391	     -0.01125550	      0.01169263	     -0.06222130	      0.00446641	     -0.00046739	     -0.18418323	      0.00377049	      0.00672789	     -0.00110345	     -0.00166476	     -0.00140516	     -0.00056206	     -0.00281032	     -0.00179861	     -0.00539582	     -0.00303515	      0.00002060	     -0.00026051	     -0.00031262	      0.00274980	      0.00964760	      0.00671137	     -0.00899510	      0.02171874	     -0.02060018	      0.00274980	      0.00964760	      0.00671137	      0.00060589	      0.02013412	     -0.01057973	      0.00422942	      0.00536491	      0.01661332	      0.00000000	      0.00942666	      0.00000000	     -0.00787654	     -0.03639987	     -0.00778051	     -0.01736173	     -0.00126020	     -0.00462972	     -0.00097874	      0.01640558	     -0.00671137	      0.00270319	      0.02367623	     -0.01957483	     -0.00657155	      0.01421506	     -0.00601227	     -0.01370238	      0.03001475	     -0.03360347	     -0.02572693	      0.01589290	     -0.00806297	     -0.01705807	      0.03467542	     -0.04199268
      0.93333333	     -0.35401062	      0.14994219	     -0.14994219	      0.35401062	     -0.07167995	      0.57929214	      0.26038783	     -0.26038783	     -0.57929214	      0.07167995	     94.08098457	     83.81516098	     -1.64202294	     17.83753527	     27.85611536	    -57.48701010	      0.39736801	      0.84464593	      0.41004110	      0.42232296	     18.03850396	     -9.94348408	    -12.94554542	     -7.89143175	      7.58155861	      6.61234593	     35.92425692	      2.22144008	     22.71387870	      4.25577675	     33.84072823	     22.21560919	     33.66016031	     -5.25985124	     25.75236714	     21.58443192	     36.03162063	    -13.96708315	      9.40626136	      5.29521375	      0.00082139	     -0.03079274	     -0.00481427	      0.00552122	     -0.01776725	     -0.01121436	      0.01179764	     -0.06215340	      0.00458089	     -0.00056802	     -0.18417374	      0.00388417	      0.00689843	     -0.00111880	     -0.00172910	     -0.00146165	     -0.00058466	     -0.00292330	     -0.00187091	     -0.00561273	     -0.00315716	      0.00001665	     -0.00027019	     -0.00032423	      0.00274728	      0.00963875	      0.00670522	     -0.00898686	      0.02169883	     -0.02058130	      0.00274728	      0.00963875	      0.00670522	      0.00060533	      0.02011566	     -0.01057003	      0.00422673	      0.00535999	      0.01660755	      0.00000000	      0.00940923	      0.00000000	     -0.00786932	     -0.03636650	     -0.00776607	     -0.01763269	     -0.00129734	     -0.00475680	     -0.00097784	      0.01639053	     -0.00670522	      0.00270071	      0.02365452	     -0.01955689	     -0.00656553	      0.01420203	     -0.00600676	     -0.01368982	      0.02998723	     -0.03357266	     -0.02570334	      0.01587833	     -0.00805558	     -0.01704243	      0.03464363	     -0.04195418
